# xmcd
#
# Track frame offsets: 
#        150
#        22807
#        47050
#
# Disc length: 930 seconds
#
# Revision: 1
# Processed by: cddbd v1.5.2PL0 Copyright (c) Steve Scherf et al.
# Submitted via: ExactAudioCopy v1.0b3
#
DISCID=1803a003
DTITLE=坂本龍一 - LOST CHILD WPC6-10085
DYEAR=2000
DGENRE=JPop
TTITLE0=LOST CHILD - SQ and P
TTITLE1=LOST CHILD - VC and P
TTITLE2=LOST CHILD - P
EXTD=
EXTT0=
EXTT1=
EXTT2=
PLAYORDER=
